<?xml version="1.0" encoding="utf-8"?>
<!-- Generator: Adobe Illustrator 16.0.3, SVG Export Plug-In . SVG Version: 6.00 Build 0)  -->
<!DOCTYPE svg PUBLIC "-//W3C//DTD SVG 1.1//EN" "http://www.w3.org/Graphics/SVG/1.1/DTD/svg11.dtd">
<svg version="1.1" id="Layer_2" xmlns="http://www.w3.org/2000/svg" xmlns:xlink="http://www.w3.org/1999/xlink" x="0px" y="0px"
	 width="292.742px" height="61.641px" viewBox="0 0 292.742 61.641" enable-background="new 0 0 292.742 61.641"
	 xml:space="preserve">
<g>
	<circle cx="30.888" cy="30.713" r="30.93"/>
	<path fill="#FFFFFF" d="M61.818,30.713c-30.93,0-30.93,30.928-30.93,30.928s0-30.928-30.93-30.928c30.93,0,30.93-30.93,30.93-30.93
		S30.888,30.713,61.818,30.713z"/>
	<path fill="#FF5E07" d="M39.449,39.273c-8.561-8.561-17.123,0-17.123,0s8.563-8.561,0-17.122c8.563,8.562,17.123,0,17.123,0
		S30.888,30.713,39.449,39.273z"/>
	<path fill="#FFFFFF" d="M35.65,30.712c-4.764,0-4.764,4.763-4.764,4.763s0-4.763-4.762-4.763c4.762,0,4.762-4.762,4.762-4.762
		S30.886,30.712,35.65,30.712z"/>
</g>
<g>
	<path fill="#FF5E07" d="M89.894,55.697c-2.768,0-5.08-0.255-6.939-0.764s-3.354-1.162-4.482-1.959s-1.932-1.688-2.407-2.673
		c-0.477-0.984-0.714-1.964-0.714-2.938c0-1.682,0.509-2.943,1.527-3.785c1.018-0.841,2.412-1.262,4.184-1.262
		c0,1.195,0.166,2.374,0.498,3.536s0.857,2.208,1.577,3.138c0.719,0.93,1.648,1.683,2.789,2.258c1.14,0.576,2.518,0.863,4.134,0.863
		c2.059,0,3.852-0.503,5.379-1.511c1.527-1.007,2.806-2.401,3.835-4.184c1.029-1.781,1.81-3.89,2.341-6.325
		c0.531-2.435,0.841-5.068,0.93-7.902h-18.76v-3.32h18.76c-0.089-3.121-0.365-5.888-0.83-8.301
		c-0.465-2.412-1.162-4.443-2.092-6.093c-0.93-1.648-2.12-2.905-3.569-3.769c-1.45-0.863-3.204-1.295-5.263-1.295
		c-1.483,0-2.795,0.261-3.935,0.78c-1.141,0.521-2.098,1.212-2.872,2.075c-0.775,0.863-1.361,1.854-1.76,2.972
		c-0.398,1.118-0.598,2.274-0.598,3.47c-1.683,0-3.033-0.365-4.051-1.096c-1.019-0.73-1.527-1.793-1.527-3.188
		c0-1.129,0.304-2.213,0.913-3.254c0.608-1.04,1.527-1.959,2.756-2.756s2.772-1.433,4.632-1.909
		c1.859-0.476,4.051-0.714,6.574-0.714c3.01,0,5.705,0.526,8.085,1.577c2.379,1.052,4.388,2.612,6.026,4.682
		c1.638,2.07,2.894,4.638,3.769,7.703c0.874,3.066,1.312,6.603,1.312,10.608c0,3.83-0.448,7.305-1.345,10.426
		s-2.203,5.789-3.918,8.002c-1.716,2.214-3.83,3.918-6.342,5.113C95.998,55.1,93.126,55.697,89.894,55.697z"/>
	<path fill="#FF5E07" d="M141.429,55.033v-2.855h0.896c0.774,0,1.499-0.055,2.175-0.166c0.675-0.11,1.262-0.337,1.76-0.681
		c0.498-0.343,0.896-0.835,1.195-1.478c0.299-0.642,0.448-1.494,0.448-2.557V31.359h-22.113v15.938c0,1.063,0.149,1.915,0.448,2.557
		c0.299,0.643,0.697,1.135,1.195,1.478c0.498,0.344,1.09,0.57,1.776,0.681c0.686,0.111,1.405,0.166,2.158,0.166h0.896v2.855h-19.789
		v-2.855h0.863c0.774,0,1.499-0.055,2.175-0.166c0.675-0.11,1.267-0.337,1.776-0.681c0.509-0.343,0.907-0.835,1.195-1.478
		c0.287-0.642,0.432-1.494,0.432-2.557V13.961c0-0.996-0.149-1.798-0.448-2.407c-0.299-0.608-0.703-1.079-1.212-1.411
		c-0.51-0.332-1.102-0.548-1.776-0.647c-0.676-0.1-1.39-0.149-2.142-0.149h-0.863V6.49h19.789v2.855h-0.896
		c-0.753,0-1.473,0.056-2.158,0.166c-0.687,0.111-1.278,0.338-1.776,0.681c-0.498,0.344-0.896,0.836-1.195,1.478
		c-0.299,0.643-0.448,1.494-0.448,2.557v13.746h22.113V14.227c0-1.063-0.149-1.914-0.448-2.557
		c-0.299-0.642-0.697-1.134-1.195-1.478c-0.498-0.343-1.085-0.569-1.76-0.681c-0.676-0.11-1.4-0.166-2.175-0.166h-0.896V6.49h19.789
		v2.855h-0.863c-0.775,0-1.5,0.056-2.175,0.166c-0.676,0.111-1.268,0.338-1.776,0.681c-0.51,0.344-0.908,0.836-1.195,1.478
		c-0.288,0.643-0.432,1.494-0.432,2.557v33.402c0,0.996,0.149,1.799,0.448,2.407c0.299,0.609,0.702,1.068,1.212,1.378
		c0.509,0.311,1.101,0.515,1.776,0.614c0.675,0.1,1.389,0.149,2.142,0.149h0.863v2.855H141.429z"/>
	<path fill="#FF5E07" d="M202.092,18.643c0,1.527-0.216,2.867-0.647,4.018c-0.432,1.151-1.024,2.158-1.776,3.021
		c-0.753,0.863-1.644,1.589-2.673,2.175c-1.029,0.587-2.142,1.079-3.337,1.478V29.6c1.549,0.266,2.966,0.72,4.25,1.361
		c1.283,0.643,2.385,1.478,3.304,2.507c0.918,1.029,1.632,2.247,2.142,3.652c0.509,1.406,0.764,3.005,0.764,4.798
		c0,4.383-1.439,7.665-4.316,9.845c-2.878,2.181-7.261,3.271-13.148,3.271h-20.254v-2.855h0.863c0.774,0,1.499-0.055,2.175-0.166
		c0.675-0.11,1.267-0.337,1.776-0.681c0.509-0.343,0.907-0.835,1.195-1.478c0.287-0.642,0.432-1.494,0.432-2.557V13.961
		c0-0.996-0.149-1.798-0.448-2.407c-0.299-0.608-0.703-1.079-1.212-1.411c-0.51-0.332-1.102-0.548-1.776-0.647
		c-0.676-0.1-1.39-0.149-2.142-0.149h-0.863V6.49h18.229c5.888,0,10.271,0.979,13.148,2.938
		C200.652,11.388,202.092,14.459,202.092,18.643z M179.713,27.906h4.715c1.992,0,3.652-0.177,4.98-0.531
		c1.328-0.354,2.391-0.901,3.188-1.644c0.797-0.741,1.366-1.698,1.71-2.872c0.343-1.173,0.515-2.578,0.515-4.217
		c0-1.66-0.188-3.049-0.564-4.167c-0.377-1.117-0.985-2.02-1.826-2.706c-0.842-0.686-1.932-1.173-3.271-1.461
		c-1.34-0.287-2.972-0.432-4.897-0.432h-4.549V27.906z M179.713,51.646h6.607c1.926,0,3.553-0.177,4.881-0.531
		c1.328-0.354,2.412-0.924,3.254-1.71c0.841-0.785,1.449-1.81,1.826-3.071c0.376-1.262,0.564-2.8,0.564-4.615
		c0-1.771-0.166-3.309-0.498-4.615c-0.332-1.306-0.902-2.391-1.71-3.254c-0.809-0.863-1.876-1.505-3.204-1.926
		c-1.328-0.42-2.988-0.631-4.98-0.631h-6.74V51.646z"/>
	<path fill="#FF5E07" d="M252.132,30.695c0,3.741-0.465,7.15-1.395,10.227c-0.93,3.077-2.303,5.711-4.117,7.902
		c-1.815,2.191-4.051,3.885-6.707,5.08s-5.7,1.793-9.131,1.793c-3.608,0-6.752-0.598-9.43-1.793
		c-2.679-1.195-4.903-2.889-6.674-5.08c-1.771-2.191-3.1-4.831-3.984-7.919c-0.886-3.088-1.328-6.513-1.328-10.276
		c0-3.763,0.442-7.177,1.328-10.243c0.885-3.065,2.213-5.683,3.984-7.853c1.771-2.169,4.006-3.846,6.707-5.03
		c2.7-1.184,5.854-1.776,9.463-1.776c3.431,0,6.463,0.593,9.098,1.776c2.634,1.185,4.858,2.867,6.674,5.047
		c1.814,2.181,3.188,4.804,4.117,7.869C251.667,23.485,252.132,26.91,252.132,30.695z M216.903,30.695
		c0,3.365,0.249,6.37,0.747,9.015c0.498,2.646,1.3,4.881,2.407,6.707c1.106,1.826,2.54,3.221,4.3,4.184s3.901,1.444,6.425,1.444
		s4.665-0.481,6.425-1.444s3.188-2.357,4.283-4.184s1.887-4.062,2.374-6.707c0.486-2.645,0.73-5.649,0.73-9.015
		c0-3.364-0.244-6.369-0.73-9.015c-0.487-2.645-1.278-4.875-2.374-6.69c-1.096-1.814-2.513-3.198-4.25-4.15
		c-1.738-0.951-3.868-1.428-6.392-1.428s-4.671,0.477-6.441,1.428c-1.771,0.952-3.216,2.336-4.333,4.15
		c-1.118,1.815-1.926,4.046-2.424,6.69C217.152,24.326,216.903,27.331,216.903,30.695z"/>
	<path fill="#FF5E07" d="M278.996,5.793c2.324,0,4.344,0.194,6.06,0.581c1.715,0.388,3.143,0.925,4.283,1.61
		c1.14,0.687,1.992,1.494,2.557,2.424s0.847,1.938,0.847,3.021c0,0.73-0.149,1.39-0.448,1.976c-0.299,0.587-0.714,1.085-1.245,1.494
		c-0.531,0.41-1.157,0.726-1.876,0.946c-0.72,0.222-1.5,0.332-2.341,0.332c0-1.063-0.139-2.113-0.415-3.154
		c-0.277-1.04-0.73-1.976-1.361-2.806s-1.45-1.505-2.457-2.025c-1.008-0.52-2.253-0.78-3.735-0.78c-2.568,0-4.748,0.471-6.541,1.411
		c-1.793,0.941-3.254,2.313-4.383,4.117c-1.129,1.805-1.948,4.029-2.457,6.674c-0.51,2.646-0.764,5.673-0.764,9.081
		c0,3.033,0.266,5.811,0.797,8.334s1.372,4.688,2.523,6.491c1.15,1.805,2.617,3.204,4.399,4.2c1.781,0.996,3.923,1.494,6.425,1.494
		c1.66,0,3.126-0.16,4.399-0.481c1.272-0.32,2.396-0.747,3.37-1.278c0.974-0.531,1.831-1.146,2.573-1.843
		c0.741-0.697,1.399-1.422,1.976-2.175c0.376,0.244,0.686,0.576,0.93,0.996c0.243,0.421,0.365,0.975,0.365,1.66
		c0,0.863-0.294,1.743-0.88,2.64c-0.587,0.896-1.478,1.71-2.673,2.44s-2.712,1.334-4.549,1.81c-1.838,0.476-4.018,0.714-6.541,0.714
		c-3.387,0-6.364-0.598-8.932-1.793c-2.568-1.195-4.721-2.889-6.458-5.08c-1.738-2.191-3.05-4.825-3.935-7.902
		c-0.886-3.076-1.328-6.485-1.328-10.227c0-3.674,0.465-7.039,1.395-10.094s2.308-5.678,4.134-7.869s4.101-3.896,6.823-5.113
		C272.256,6.402,275.41,5.793,278.996,5.793z"/>
</g>
</svg>
