<?xml version="1.0" encoding="utf-8"?>
<!-- Generator: Adobe Illustrator 16.0.3, SVG Export Plug-In . SVG Version: 6.00 Build 0)  -->
<!DOCTYPE svg PUBLIC "-//W3C//DTD SVG 1.1//EN" "http://www.w3.org/Graphics/SVG/1.1/DTD/svg11.dtd">
<svg version="1.1" id="Layer_1" xmlns="http://www.w3.org/2000/svg" xmlns:xlink="http://www.w3.org/1999/xlink" x="0px" y="0px"
	 width="220px" height="172.565px" viewBox="0 0 220 172.565" enable-background="new 0 0 220 172.565" xml:space="preserve">
<g>
	<path d="M133.584,43.32h0.134c19.033,0,38.877,5.976,57.385,17.282l0.145,0.088V22.955l-0.048-0.027
		c-12.706-7.349-26.706-13.076-41.611-17.023C134.79,1.987,119.776,0,104.965,0c-13.423,0-28.75,2.272-44.323,6.572
		c-17.01,4.83-32.439,15.403-43.445,29.772c-5.459,7.128-9.713,14.982-12.643,23.345C1.532,68.313,0,77.261,0,86.282
		c0,9.021,1.532,17.969,4.554,26.593c2.93,8.363,7.184,16.217,12.643,23.345c11.006,14.369,26.435,24.943,43.445,29.772
		c15.574,4.3,30.9,6.572,44.323,6.572c14.823,0,29.837-1.99,44.623-5.915c14.915-3.959,28.915-9.708,41.612-17.087l0.047-0.027
		v-37.589l-0.145,0.088c-18.09,11.098-38.47,17.209-57.385,17.209h-0.135c-11.449,0-22.22-4.473-30.328-12.596
		c-8.107-8.121-12.572-18.906-12.572-30.367C90.683,62.593,109.928,43.32,133.584,43.32z M73.278,90.5
		c-5.719,5.718-13.333,8.867-21.441,8.867c-2.366,0-4.803-0.271-7.245-0.805l-0.074-0.016V81.45l0.141,0.078
		c2.148,1.186,4.631,1.813,7.179,1.813c7.875,0,14.282-6.406,14.282-14.281s-6.407-14.282-14.282-14.282
		s-14.282,6.407-14.282,14.282v64.756l-0.098-0.003c-8.783-0.225-15.929-7.372-15.929-15.931V69.059
		c0-8.108,3.149-15.723,8.867-21.44c5.718-5.718,13.333-8.867,21.441-8.867c8.108,0,15.722,3.149,21.441,8.867
		c5.718,5.718,8.867,13.332,8.867,21.44C82.145,77.167,78.996,84.781,73.278,90.5z"/>
	<polygon points="162.304,64.659 162.304,82.071 176.68,82.071 176.68,107.832 205.624,107.832 205.624,82.071 220,82.071 
		220,64.659 	"/>
</g>
</svg>
