<?xml version="1.0" encoding="utf-8"?>
<!-- Generator: Adobe Illustrator 16.0.3, SVG Export Plug-In . SVG Version: 6.00 Build 0)  -->
<!DOCTYPE svg PUBLIC "-//W3C//DTD SVG 1.1//EN" "http://www.w3.org/Graphics/SVG/1.1/DTD/svg11.dtd">
<svg version="1.1" id="Layer_1" xmlns="http://www.w3.org/2000/svg" xmlns:xlink="http://www.w3.org/1999/xlink" x="0px" y="0px"
	 width="220px" height="220px" viewBox="0 0 220 220" enable-background="new 0 0 220 220" xml:space="preserve">
<g>
	<path fill="none" d="M109.998,7.036C53.225,7.036,7.036,53.225,7.036,109.998c0,56.775,46.188,102.965,102.962,102.965
		c56.775,0,102.966-46.19,102.966-102.965C212.964,53.225,166.773,7.036,109.998,7.036z M113.759,180.372l-85.806-77.976h62.493
		L113.752,25.1l23.306,77.296h62.493L113.759,180.372z"/>
	<path d="M109.998,0C49.345,0,0,49.345,0,109.998C0,170.653,49.345,220,109.998,220C170.653,220,220,170.653,220,109.998
		C220,49.345,170.653,0,109.998,0z M109.998,212.963c-56.773,0-102.962-46.19-102.962-102.965
		c0-56.773,46.188-102.962,102.962-102.962c56.775,0,102.966,46.188,102.966,102.962
		C212.964,166.773,166.773,212.963,109.998,212.963z"/>
	<path d="M137.058,102.396L113.752,25.1l-23.306,77.296H27.953l85.806,77.976l85.792-77.976H137.058z M37.055,105.914h56.004
		l-0.002,0.007l20.253,34.648L37.055,105.914L37.055,105.914z M113.745,175.631v-34.317l0.007,0.011V37.286l20.696,68.635
		l-20.255,34.648l76.256-34.655L113.745,175.631z"/>
	<polygon fill="none" points="113.31,140.569 93.056,105.921 93.059,105.914 37.055,105.914 37.054,105.914 	"/>
	<polygon fill="none" points="114.193,140.569 134.448,105.921 113.752,37.286 113.752,141.325 113.745,141.314 113.745,175.631 
		190.449,105.914 	"/>
</g>
</svg>
